<svg width="32" height="32" viewBox="0 0 32 32" fill="none" xmlns="http://www.w3.org/2000/svg">
<path d="M28.9998 8V24C28.9998 24.5304 28.7891 25.0391 28.414 25.4142C28.0389 25.7893 27.5302 26 26.9998 26H10.3748L6.29979 29.52L6.28854 29.5287C5.92853 29.8338 5.4717 30.0009 4.99979 30C4.70638 29.9995 4.41666 29.9346 4.15104 29.81C3.80555 29.6508 3.51323 29.3954 3.30907 29.0744C3.1049 28.7534 2.99753 28.3804 2.99979 28V8C2.99979 7.46957 3.2105 6.96086 3.58558 6.58579C3.96065 6.21071 4.46936 6 4.99979 6H26.9998C27.5302 6 28.0389 6.21071 28.414 6.58579C28.7891 6.96086 28.9998 7.46957 28.9998 8Z" fill="#A5A196"/>
</svg>
