<svg width="32" height="32" viewBox="0 0 32 32" fill="none" xmlns="http://www.w3.org/2000/svg">
<path d="M4.498 4C3.118 4 2 5.12 2 6.5V25.49C2 26.87 3.12 27.99 4.498 27.99H5.498C6.878 27.99 7.996 26.87 7.996 25.49V6.498C7.996 5.118 6.876 4 5.496 4H4.498ZM12.492 4C11.112 4 9.992 5.12 9.992 6.5V25.49C9.992 26.87 11.112 27.99 12.492 27.99H13.492C14.1543 27.9889 14.7892 27.7251 15.2572 27.2564C15.7252 26.7876 15.988 26.1523 15.988 25.49V6.498C15.9875 5.83565 15.7241 5.20058 15.2558 4.73223C14.7874 4.26388 14.1523 4.00053 13.49 4H12.492ZM23.944 9.554C23.7038 8.95812 23.2435 8.47757 22.6584 8.21205C22.0734 7.94654 21.4086 7.91644 20.802 8.128L19.638 8.536C19.3195 8.64782 19.0269 8.82299 18.7779 9.05094C18.529 9.27889 18.3287 9.5549 18.1893 9.86233C18.0499 10.1698 17.9742 10.5022 17.9667 10.8397C17.9593 11.1772 18.0203 11.5127 18.146 11.826L24.02 26.434C24.518 27.674 25.9 28.3 27.162 27.86L28.326 27.452C28.6448 27.3402 28.9375 27.165 29.1867 26.9369C29.4358 26.7088 29.6362 26.4326 29.7756 26.1249C29.9151 25.8172 29.9907 25.4845 29.998 25.1468C30.0053 24.8091 29.944 24.4734 29.818 24.16L23.944 9.554Z" fill="#A5A196"/>
</svg>
