<svg width="20" height="20" viewBox="0 0 20 20" fill="none" xmlns="http://www.w3.org/2000/svg">
<g clip-path="url(#clip0_70_9496)">
<path d="M18.8682 10.1959C18.8682 12.5355 17.9388 14.7793 16.2845 16.4336C14.6301 18.088 12.3864 19.0174 10.0468 19.0174C7.70718 19.0174 5.46342 18.088 3.80908 16.4336C2.15474 14.7793 1.22534 12.5355 1.22534 10.1959M18.8682 10.1959C18.8682 7.85635 17.9388 5.61259 16.2845 3.95825C14.6301 2.30391 12.3864 1.37451 10.0468 1.37451C7.70718 1.37451 5.46342 2.30391 3.80908 3.95825C2.15474 5.61259 1.22534 7.85635 1.22534 10.1959M18.8682 10.1959H1.22534" stroke="black" stroke-width="1.35714" stroke-linecap="round" stroke-linejoin="round"/>
<path d="M13.4395 10.1959C13.2729 13.4219 12.0847 16.5112 10.0467 19.0174C8.00867 16.5112 6.82046 13.4219 6.65381 10.1959C6.82046 6.97002 8.00867 3.88068 10.0467 1.37451C12.0847 3.88068 13.2729 6.97002 13.4395 10.1959Z" stroke="black" stroke-width="1.35714" stroke-linecap="round" stroke-linejoin="round"/>
</g>
<defs>
<clipPath id="clip0_70_9496">
<rect width="19" height="19" fill="white" transform="translate(0.546875 0.695801)"/>
</clipPath>
</defs>
</svg>
