<svg width="19" height="20" viewBox="0 0 19 20" fill="none" xmlns="http://www.w3.org/2000/svg">
<g clip-path="url(#clip0_70_9508)">
<path d="M18.3213 10.1959C18.3213 12.5355 17.3919 14.7793 15.7376 16.4336C14.0832 18.088 11.8395 19.0174 9.4999 19.0174C7.16031 19.0174 4.91654 18.088 3.2622 16.4336C1.60786 14.7793 0.678467 12.5355 0.678467 10.1959M18.3213 10.1959C18.3213 7.85635 17.3919 5.61259 15.7376 3.95825C14.0832 2.30391 11.8395 1.37451 9.4999 1.37451C7.16031 1.37451 4.91654 2.30391 3.2622 3.95825C1.60786 5.61259 0.678467 7.85635 0.678467 10.1959M18.3213 10.1959H0.678467" stroke="white" stroke-width="1.35714" stroke-linecap="round" stroke-linejoin="round"/>
<path d="M12.8926 10.1959C12.726 13.4219 11.5378 16.5112 9.49979 19.0174C7.4618 16.5112 6.27359 13.4219 6.10693 10.1959C6.27359 6.97002 7.4618 3.88068 9.49979 1.37451C11.5378 3.88068 12.726 6.97002 12.8926 10.1959Z" stroke="white" stroke-width="1.35714" stroke-linecap="round" stroke-linejoin="round"/>
</g>
<defs>
<clipPath id="clip0_70_9508">
<rect width="19" height="19" fill="white" transform="translate(0 0.695801)"/>
</clipPath>
</defs>
</svg>
