<svg width="32" height="32" viewBox="0 0 32 32" fill="none" xmlns="http://www.w3.org/2000/svg">
<path d="M16.5394 3.75483C16.3891 3.6263 16.1979 3.55566 16.0001 3.55566C15.8024 3.55566 15.6111 3.6263 15.4608 3.75483L3.55566 13.9593V25.9557C3.55566 26.6158 3.81789 27.2489 4.28464 27.7156C4.7514 28.1824 5.38446 28.4446 6.04455 28.4446H12.6816C12.9016 28.4446 13.1126 28.3572 13.2682 28.2016C13.4238 28.046 13.5112 27.835 13.5112 27.615V22.6372C13.5112 21.9771 13.7734 21.344 14.2402 20.8773C14.707 20.4105 15.34 20.1483 16.0001 20.1483C16.6602 20.1483 17.2933 20.4105 17.76 20.8773C18.2268 21.344 18.489 21.9771 18.489 22.6372V27.615C18.489 27.835 18.5764 28.046 18.732 28.2016C18.8876 28.3572 19.0986 28.4446 19.3186 28.4446H25.9557C26.6158 28.4446 27.2488 28.1824 27.7156 27.7156C28.1823 27.2489 28.4446 26.6158 28.4446 25.9557V13.9593L16.5394 3.75483Z" fill="#A5A196"/>
</svg>
