<svg width="14" height="12" viewBox="0 0 14 12" fill="none" xmlns="http://www.w3.org/2000/svg">
<g clip-path="url(#clip0_70_9790)">
<path d="M11.0781 3.88546C10.9347 3.83628 10.7901 3.7907 10.6444 3.74878C10.6688 3.64878 10.6914 3.54999 10.7114 3.45294C11.0397 1.8592 10.8251 0.575254 10.0919 0.152517C9.38905 -0.252746 8.23953 0.169833 7.07858 1.1802C6.96416 1.27995 6.85228 1.38258 6.74305 1.48799C6.66993 1.4179 6.59551 1.34917 6.51984 1.28183C5.3031 0.201517 4.08353 -0.253799 3.35121 0.170149C2.64895 0.576675 2.441 1.78368 2.73658 3.2941C2.76599 3.44369 2.79919 3.59251 2.83616 3.74041C2.66353 3.78946 2.49695 3.84167 2.33753 3.89725C0.911 4.39462 0 5.17404 0 5.98252C0 6.81752 0.978 7.65504 2.46379 8.16289C2.58425 8.20388 2.70571 8.24187 2.82805 8.27683C2.78833 8.43614 2.75305 8.59651 2.72226 8.75778C2.44047 10.242 2.66053 11.4205 3.36089 11.8244C4.08426 12.2416 5.29837 11.8128 6.48053 10.7794C6.57638 10.6954 6.67013 10.609 6.76168 10.5203C6.87997 10.6344 7.00143 10.7453 7.12589 10.8526C8.27105 11.838 9.402 12.2359 10.1017 11.8308C10.8244 11.4125 11.0593 10.1465 10.7543 8.6062C10.7303 8.48553 10.7034 8.36546 10.6735 8.2461C10.7588 8.22083 10.8425 8.19483 10.9241 8.16778C12.4687 7.65604 13.4737 6.82867 13.4737 5.98252C13.4737 5.1711 12.5333 4.38641 11.0781 3.88546ZM10.7431 7.62146C10.6693 7.64582 10.5939 7.66941 10.5167 7.69225C10.3462 7.15241 10.1161 6.57841 9.83447 5.98531C10.1032 5.40636 10.3245 4.83967 10.4902 4.30336C10.6281 4.34325 10.7618 4.38531 10.8907 4.42968C12.1376 4.85894 12.8981 5.49352 12.8981 5.98252C12.8981 6.50336 12.0767 7.17952 10.7431 7.62146ZM10.1897 8.71799C10.3245 9.39904 10.3437 10.0148 10.2544 10.4963C10.1742 10.9288 10.0128 11.2172 9.81326 11.3327C9.38868 11.5785 8.48063 11.259 7.50132 10.4163C7.38555 10.3165 7.27258 10.2135 7.16253 10.1074C7.54221 9.69215 7.92163 9.20947 8.29195 8.67336C8.94332 8.61557 9.55868 8.52104 10.1167 8.39204C10.1443 8.50299 10.1686 8.61164 10.1897 8.71799ZM4.59347 11.2903C4.17863 11.4367 3.84821 11.4409 3.64847 11.3258C3.22347 11.0807 3.04679 10.1344 3.28779 8.86515C3.31644 8.71516 3.34924 8.566 3.38616 8.41783C3.93805 8.53994 4.54895 8.62773 5.20184 8.68068C5.57468 9.20525 5.96505 9.68741 6.35847 10.1096C6.27486 10.1905 6.18927 10.2694 6.10179 10.346C5.579 10.803 5.05516 11.1272 4.59347 11.2903ZM2.65 7.61825C1.993 7.39368 1.45042 7.10183 1.07853 6.78336C0.744316 6.4972 0.575632 6.21304 0.575632 5.98252C0.575632 5.49189 1.30705 4.8661 2.527 4.44078C2.67505 4.3892 2.83 4.34052 2.99079 4.29483C3.15942 4.84325 3.38058 5.41668 3.64747 5.99652C3.37711 6.58494 3.15279 7.16752 2.98253 7.72241C2.87085 7.69042 2.75997 7.65569 2.65 7.61825ZM3.30147 3.18352C3.04826 1.88946 3.21642 0.913307 3.63963 0.668307C4.09037 0.407359 5.0871 0.779412 6.13768 1.71225C6.20619 1.77322 6.27359 1.83542 6.33984 1.89883C5.94837 2.3192 5.56158 2.79778 5.19205 3.31925C4.55837 3.37799 3.95179 3.47231 3.3941 3.59868C3.35974 3.46111 3.32885 3.32264 3.30147 3.18352ZM9.11342 4.61873C8.98169 4.3912 8.84508 4.16653 8.70368 3.94489C9.13358 3.99925 9.54547 4.07141 9.93226 4.15962C9.81616 4.53183 9.67142 4.92094 9.50105 5.31989C9.37652 5.08361 9.24729 4.84984 9.11342 4.61873ZM6.74332 2.31025C7.00879 2.59789 7.27468 2.91899 7.53621 3.26741C7.00568 3.24235 6.47427 3.24225 5.94374 3.2671C6.20553 2.92189 6.47368 2.6012 6.74332 2.31025ZM4.358 4.62262C4.2258 4.85188 4.09898 5.08418 3.97763 5.31936C3.81005 4.92183 3.66663 4.53094 3.54953 4.15346C3.93395 4.06746 4.34389 3.99715 4.77105 3.94378C4.62808 4.16678 4.49036 4.39316 4.358 4.62262ZM4.78332 8.06215C4.342 8.01289 3.92589 7.9462 3.54158 7.86252C3.66053 7.47831 3.8071 7.0791 3.97832 6.67304C4.10015 6.90839 4.2275 7.14084 4.36026 7.3702C4.49679 7.60599 4.63816 7.83694 4.78332 8.06215ZM6.75921 9.69531C6.48637 9.40099 6.21426 9.07536 5.94853 8.72515C6.20653 8.73525 6.46953 8.74041 6.73684 8.74041C7.01147 8.74041 7.28295 8.73425 7.55016 8.72236C7.28779 9.07889 7.02289 9.40499 6.75921 9.69531ZM9.50647 6.65231C9.68658 7.06283 9.83837 7.45994 9.95889 7.83757C9.56826 7.92673 9.14647 7.99852 8.70205 8.05183C8.84447 7.82608 8.98237 7.5975 9.11568 7.36625C9.25123 7.1312 9.38153 6.89316 9.50647 6.65231ZM8.61711 7.07868C8.413 7.43321 8.19743 7.78103 7.97074 8.12157C7.56008 8.15067 7.14852 8.16512 6.73684 8.16489C6.31753 8.16489 5.90968 8.15183 5.51695 8.12636C5.28432 7.78662 5.06464 7.43819 4.85837 7.08183C4.65304 6.72737 4.46133 6.36524 4.28353 5.9962C4.46088 5.62708 4.65207 5.26477 4.85668 4.91004L4.85663 4.9101C5.06114 4.55526 5.27907 4.20832 5.50995 3.87004C5.91063 3.83973 6.32153 3.82394 6.73679 3.82394C7.15395 3.82394 7.56542 3.83989 7.966 3.87041C8.19454 4.20819 8.41108 4.55393 8.61521 4.90699C8.82048 5.26096 9.01419 5.6215 9.19605 5.98804C9.01606 6.35833 8.82295 6.72211 8.61711 7.07868ZM9.80447 0.651096C10.2556 0.911307 10.4311 1.96062 10.1476 3.33667C10.1295 3.42453 10.1093 3.51383 10.0871 3.60457C9.52805 3.47552 8.92105 3.37957 8.28553 3.31994C7.91532 2.79273 7.53168 2.31341 7.14658 1.89846C7.24751 1.80118 7.35084 1.70641 7.45647 1.61425C8.45121 0.748622 9.38089 0.406833 9.80447 0.651096ZM6.73684 4.77936C7.40132 4.77936 7.94 5.31804 7.94 5.98252C7.94 6.64699 7.40132 7.18568 6.73684 7.18568C6.07237 7.18568 5.53368 6.64699 5.53368 5.98252C5.53368 5.31804 6.07237 4.77936 6.73684 4.77936Z" fill="#00D8FF"/>
</g>
<defs>
<clipPath id="clip0_70_9790">
<rect width="13.4737" height="12" fill="white"/>
</clipPath>
</defs>
</svg>
